<svg width="455" height="407" viewBox="0 0 455 407" fill="none" xmlns="http://www.w3.org/2000/svg">
<g clip-path="url(#clip0_17_117)">
<path d="M278.128 53.7504C276.436 52.1693 276.436 49.486 278.128 47.9049L307.055 20.8773C307.796 20.1851 308.772 19.8001 309.786 19.8001L373.046 19.8001C374.06 19.8001 375.036 20.1851 375.777 20.8773L404.703 47.9049C406.396 49.486 406.396 52.1693 404.703 53.7504L375.777 80.778C375.036 81.4702 374.06 81.8553 373.046 81.8553L309.786 81.8553C308.772 81.8553 307.796 81.4702 307.055 80.778L278.128 53.7504Z" fill="#D9D9D9"/>
<path d="M165.128 205.75C163.436 204.169 163.436 201.486 165.128 199.905L194.055 172.877C194.796 172.185 195.772 171.8 196.786 171.8H260.046C261.06 171.8 262.036 172.185 262.777 172.877L291.703 199.905C293.396 201.486 293.396 204.169 291.703 205.75L262.777 232.778C262.036 233.47 261.06 233.855 260.046 233.855L196.786 233.855C195.772 233.855 194.796 233.47 194.055 232.778L165.128 205.75Z" fill="#D9D9D9"/>
<path d="M165.128 307.75C163.436 306.169 163.436 303.486 165.128 301.905L194.055 274.877C194.796 274.185 195.772 273.8 196.786 273.8H260.046C261.06 273.8 262.036 274.185 262.777 274.877L291.703 301.905C293.396 303.486 293.396 306.169 291.703 307.75L262.777 334.778C262.036 335.47 261.06 335.855 260.046 335.855H196.786C195.772 335.855 194.796 335.47 194.055 334.778L165.128 307.75Z" fill="#D9D9D9"/>
<path d="M165.128 103.75C163.436 102.169 163.436 99.486 165.128 97.9049L194.055 70.8773C194.796 70.1851 195.772 69.8001 196.786 69.8001L260.046 69.8001C261.06 69.8001 262.036 70.1851 262.777 70.8773L291.703 97.9049C293.396 99.486 293.396 102.169 291.703 103.75L262.777 130.778C262.036 131.47 261.06 131.855 260.046 131.855L196.786 131.855C195.772 131.855 194.796 131.47 194.055 130.778L165.128 103.75Z" fill="#D9D9D9"/>
<path d="M278.128 153.75C276.436 152.169 276.436 149.486 278.128 147.905L307.055 120.877C307.796 120.185 308.772 119.8 309.786 119.8L373.046 119.8C374.06 119.8 375.036 120.185 375.777 120.877L404.703 147.905C406.396 149.486 406.396 152.169 404.703 153.75L375.777 180.778C375.036 181.47 374.06 181.855 373.046 181.855L309.786 181.855C308.772 181.855 307.796 181.47 307.055 180.778L278.128 153.75Z" fill="#D9D9D9"/>
<path d="M278.128 255.75C276.436 254.169 276.436 251.486 278.128 249.905L307.055 222.877C307.796 222.185 308.772 221.8 309.786 221.8H373.046C374.06 221.8 375.036 222.185 375.777 222.877L404.703 249.905C406.396 251.486 406.396 254.169 404.703 255.75L375.777 282.778C375.036 283.47 374.06 283.855 373.046 283.855H309.786C308.772 283.855 307.796 283.47 307.055 282.778L278.128 255.75Z" fill="#D9D9D9"/>
<path d="M214 145.79H262.211C262.718 145.79 263.206 145.597 263.577 145.251L303.923 107.539C304.294 107.193 304.782 107 305.289 107H354.5" stroke="#D9D9D9" stroke-width="4"/>
<path d="M330 107H378.211C378.718 107 379.206 107.193 379.577 107.539L419.923 145.251C420.294 145.597 420.782 145.79 421.289 145.79H455.5" stroke="#D9D9D9" stroke-width="4"/>
<path d="M214 158H262.211C262.718 158 263.206 158.193 263.577 158.539L303.923 196.251C304.294 196.597 304.782 196.79 305.289 196.79H354.5" stroke="#D9D9D9" stroke-width="4"/>
<path d="M330 196.79H378.211C378.718 196.79 379.206 196.597 379.577 196.251L419.923 158.539C420.294 158.193 420.782 158 421.289 158H455.5" stroke="#D9D9D9" stroke-width="4"/>
<path d="M214 247.79H262.211C262.718 247.79 263.206 247.597 263.577 247.251L303.923 209.539C304.294 209.193 304.782 209 305.289 209H354.5" stroke="#D9D9D9" stroke-width="4"/>
<path d="M330 209H378.211C378.718 209 379.206 209.193 379.577 209.539L419.923 247.251C420.294 247.597 420.782 247.79 421.289 247.79H455.5" stroke="#D9D9D9" stroke-width="4"/>
<path d="M50.1281 53.7504C48.4359 52.1693 48.4359 49.486 50.1281 47.9049L79.0549 20.8773C79.7958 20.1851 80.7719 19.8001 81.7858 19.8001L145.046 19.8001C146.06 19.8001 147.036 20.1851 147.777 20.8773L176.703 47.9049C178.396 49.486 178.396 52.1693 176.703 53.7504L147.777 80.778C147.036 81.4702 146.06 81.8553 145.046 81.8553L81.7858 81.8553C80.7719 81.8553 79.7958 81.4702 79.0549 80.778L50.1281 53.7504Z" fill="#D9D9D9"/>
<path d="M278.128 357.75C276.436 356.169 276.436 353.486 278.128 351.905L307.055 324.877C307.796 324.185 308.772 323.8 309.786 323.8H373.046C374.06 323.8 375.036 324.185 375.777 324.877L404.703 351.905C406.396 353.486 406.396 356.169 404.703 357.75L375.777 384.778C375.036 385.47 374.06 385.855 373.046 385.855H309.786C308.772 385.855 307.796 385.47 307.055 384.778L278.128 357.75Z" fill="#D9D9D9"/>
<path d="M50.1281 357.75C48.4359 356.169 48.4359 353.486 50.1281 351.905L79.0549 324.877C79.7958 324.185 80.7719 323.8 81.7858 323.8H145.046C146.06 323.8 147.036 324.185 147.777 324.877L176.703 351.905C178.396 353.486 178.396 356.169 176.703 357.75L147.777 384.778C147.036 385.47 146.06 385.855 145.046 385.855H81.7858C80.7719 385.855 79.7958 385.47 79.0549 384.778L50.1281 357.75Z" fill="#D9D9D9"/>
<path d="M50.1281 153.75C48.4359 152.169 48.4359 149.486 50.1281 147.905L79.0549 120.877C79.7958 120.185 80.7719 119.8 81.7858 119.8L145.046 119.8C146.06 119.8 147.036 120.185 147.777 120.877L176.703 147.905C178.396 149.486 178.396 152.169 176.703 153.75L147.777 180.778C147.036 181.47 146.06 181.855 145.046 181.855L81.7858 181.855C80.7719 181.855 79.7958 181.47 79.0549 180.778L50.1281 153.75Z" fill="#D9D9D9"/>
<path d="M50.1281 255.75C48.4359 254.169 48.4359 251.486 50.1281 249.905L79.0549 222.877C79.7958 222.185 80.7719 221.8 81.7858 221.8H145.046C146.06 221.8 147.036 222.185 147.777 222.877L176.703 249.905C178.396 251.486 178.396 254.169 176.703 255.75L147.777 282.778C147.036 283.47 146.06 283.855 145.046 283.855H81.7858C80.7719 283.855 79.7958 283.47 79.0549 282.778L50.1281 255.75Z" fill="#D9D9D9"/>
<path d="M0 145.79H34.2108C34.7179 145.79 35.2061 145.597 35.5765 145.251L75.9235 107.539C76.2939 107.193 76.7821 107 77.2892 107H126.5" stroke="#D9D9D9" stroke-width="4"/>
<path d="M102 107H150.211C150.718 107 151.206 107.193 151.577 107.539L191.923 145.251C192.294 145.597 192.782 145.79 193.289 145.79H242.5" stroke="#D9D9D9" stroke-width="4"/>
<path d="M0 158H34.2108C34.7179 158 35.2061 158.193 35.5765 158.539L75.9235 196.251C76.2939 196.597 76.7821 196.79 77.2892 196.79H126.5" stroke="#D9D9D9" stroke-width="4"/>
<path d="M102 196.79H150.211C150.718 196.79 151.206 196.597 151.577 196.251L191.923 158.539C192.294 158.193 192.782 158 193.289 158H242.5" stroke="#D9D9D9" stroke-width="4"/>
<path d="M0 247.79H34.2108C34.7179 247.79 35.2061 247.597 35.5765 247.251L75.9235 209.539C76.2939 209.193 76.7821 209 77.2892 209H126.5" stroke="#D9D9D9" stroke-width="4"/>
<path d="M102 209H150.211C150.718 209 151.206 209.193 151.577 209.539L191.923 247.251C192.294 247.597 192.782 247.79 193.289 247.79H242.5" stroke="#D9D9D9" stroke-width="4"/>
<path d="M126.5 196.79H77.2892C76.7821 196.79 76.2939 196.597 75.9235 196.251L35 158" stroke="#D9D9D9" stroke-width="4"/>
<path d="M102 196.79H150.211C150.718 196.79 151.206 196.597 151.577 196.251L191.923 158.539C192.294 158.193 192.782 158 193.289 158H242.5" stroke="#D9D9D9" stroke-width="4"/>
<path d="M102 209H150.211C150.718 209 151.206 209.193 151.577 209.539L191.923 247.251C192.294 247.597 192.782 247.79 193.289 247.79H242.5" stroke="#D9D9D9" stroke-width="4"/>
<path d="M214 349.79H262.211C262.718 349.79 263.206 349.597 263.577 349.251L303.923 311.539C304.294 311.193 304.782 311 305.289 311H354.5" stroke="#D9D9D9" stroke-width="4"/>
<path d="M330 311H378.211C378.718 311 379.206 311.193 379.577 311.539L419.923 349.251C420.294 349.597 420.782 349.79 421.289 349.79H455.5" stroke="#D9D9D9" stroke-width="4"/>
<path d="M214 260H262.211C262.718 260 263.206 260.193 263.577 260.539L303.923 298.251C304.294 298.597 304.782 298.79 305.289 298.79H354.5" stroke="#D9D9D9" stroke-width="4"/>
<path d="M330 298.79H378.211C378.718 298.79 379.206 298.597 379.577 298.251L419.923 260.539C420.294 260.193 420.782 260 421.289 260H455.5" stroke="#D9D9D9" stroke-width="4"/>
<path d="M0 260H34.2108C34.7179 260 35.2061 260.193 35.5765 260.539L75.9235 298.251C76.2939 298.597 76.7821 298.79 77.2892 298.79H126.5" stroke="#D9D9D9" stroke-width="4"/>
<path d="M102 298.79H150.211C150.718 298.79 151.206 298.597 151.577 298.251L191.923 260.539C192.294 260.193 192.782 260 193.289 260H242.5" stroke="#D9D9D9" stroke-width="4"/>
<path d="M0 349.79H34.2108C34.7179 349.79 35.2061 349.597 35.5765 349.251L75.9235 311.539C76.2939 311.193 76.7821 311 77.2892 311H126.5" stroke="#D9D9D9" stroke-width="4"/>
<path d="M102 311H150.211C150.718 311 151.206 311.193 151.577 311.539L191.923 349.251C192.294 349.597 192.782 349.79 193.289 349.79H242.5" stroke="#D9D9D9" stroke-width="4"/>
<path d="M214 349.79H262.211C262.718 349.79 263.206 349.597 263.577 349.251L303.923 311.539C304.294 311.193 304.782 311 305.289 311H354.5" stroke="#D9D9D9" stroke-width="4"/>
<path d="M214 260H262.211C262.718 260 263.206 260.193 263.577 260.539L303.923 298.251C304.294 298.597 304.782 298.79 305.289 298.79H354.5" stroke="#D9D9D9" stroke-width="4"/>
<path d="M126.5 298.79H77.2892C76.7821 298.79 76.2939 298.597 75.9235 298.251L35 260" stroke="#D9D9D9" stroke-width="4"/>
<path d="M102 298.79H150.211C150.718 298.79 151.206 298.597 151.577 298.251L191.923 260.539C192.294 260.193 192.782 260 193.289 260H242.5" stroke="#D9D9D9" stroke-width="4"/>
<path d="M126.5 311H77.2892C76.7821 311 76.2939 311.193 75.9235 311.539L35 349.79" stroke="#D9D9D9" stroke-width="4"/>
<path d="M102 311H150.211C150.718 311 151.206 311.193 151.577 311.539L191.923 349.251C192.294 349.597 192.782 349.79 193.289 349.79H242.5" stroke="#D9D9D9" stroke-width="4"/>
<path d="M214 349.79H262.211C262.718 349.79 263.206 349.597 263.577 349.251L303.923 311.539C304.294 311.193 304.782 311 305.289 311H354.5" stroke="#D9D9D9" stroke-width="4"/>
<path d="M214 260H262.211C262.718 260 263.206 260.193 263.577 260.539L303.923 298.251C304.294 298.597 304.782 298.79 305.289 298.79H354.5" stroke="#D9D9D9" stroke-width="4"/>
<path d="M102 298.79H150.211C150.718 298.79 151.206 298.597 151.577 298.251L191.923 260.539C192.294 260.193 192.782 260 193.289 260H242.5" stroke="#D9D9D9" stroke-width="4"/>
<path d="M214 362H262.211C262.718 362 263.206 362.193 263.577 362.539L303.923 400.251C304.294 400.597 304.782 400.79 305.289 400.79H354.5" stroke="#D9D9D9" stroke-width="4"/>
<path d="M330 400.79H378.211C378.718 400.79 379.206 400.597 379.577 400.251L419.923 362.539C420.294 362.193 420.782 362 421.289 362H455.5" stroke="#D9D9D9" stroke-width="4"/>
<path d="M0 362H34.2108C34.7179 362 35.2061 362.193 35.5765 362.539L75.9235 400.251C76.2939 400.597 76.7821 400.79 77.2892 400.79H126.5" stroke="#D9D9D9" stroke-width="4"/>
<path d="M102 400.79H150.211C150.718 400.79 151.206 400.597 151.577 400.251L191.923 362.539C192.294 362.193 192.782 362 193.289 362H242.5" stroke="#D9D9D9" stroke-width="4"/>
<path d="M214 44.7896H262.211C262.718 44.7896 263.206 44.5969 263.577 44.2507L303.923 6.53888C304.294 6.19261 304.782 6 305.289 6H354.5" stroke="#D9D9D9" stroke-width="4"/>
<path d="M330 6L378.211 6C378.718 6 379.206 6.19262 379.577 6.53888L419.923 44.2507C420.294 44.5969 420.782 44.7896 421.289 44.7896L455.5 44.7896" stroke="#D9D9D9" stroke-width="4"/>
<path d="M0 44.7896H34.2108C34.7179 44.7896 35.2061 44.5969 35.5765 44.2507L75.9235 6.53888C76.2939 6.19261 76.7821 6 77.2892 6H126.5" stroke="#D9D9D9" stroke-width="4"/>
<path d="M102 6L150.211 6C150.718 6 151.206 6.19262 151.577 6.53888L191.923 44.2507C192.294 44.5969 192.782 44.7896 193.289 44.7896L242.5 44.7896" stroke="#D9D9D9" stroke-width="4"/>
<path d="M214 57H262.211C262.718 57 263.206 57.1926 263.577 57.5389L303.923 95.2507C304.294 95.5969 304.782 95.7896 305.289 95.7896H354.5" stroke="#D9D9D9" stroke-width="4"/>
<path d="M330 95.7896H378.211C378.718 95.7896 379.206 95.5969 379.577 95.2507L420.5 57" stroke="#D9D9D9" stroke-width="4"/>
<path d="M0 57H34.2108C34.7179 57 35.2061 57.1926 35.5765 57.5389L75.9235 95.2507C76.2939 95.5969 76.7821 95.7896 77.2892 95.7896H126.5" stroke="#D9D9D9" stroke-width="4"/>
<path d="M102 95.7896H150.211C150.718 95.7896 151.206 95.5969 151.577 95.2507L191.923 57.5389C192.294 57.1926 192.782 57 193.289 57L242.5 57" stroke="#D9D9D9" stroke-width="4"/>
<path d="M126.5 311H77.2892C76.7821 311 76.2939 311.193 75.9235 311.539L35 349.79" stroke="#D9D9D9" stroke-width="4"/>
<path d="M102 311H150.211C150.718 311 151.206 311.193 151.577 311.539L191.923 349.251C192.294 349.597 192.782 349.79 193.289 349.79H242.5" stroke="#D9D9D9" stroke-width="4"/>
<path d="M278.128 53.7504C276.436 52.1693 276.436 49.486 278.128 47.9049L307.055 20.8773C307.796 20.1851 308.772 19.8001 309.786 19.8001L373.046 19.8001C374.06 19.8001 375.036 20.1851 375.777 20.8773L404.703 47.9049C406.396 49.486 406.396 52.1693 404.703 53.7504L375.777 80.778C375.036 81.4702 374.06 81.8553 373.046 81.8553L309.786 81.8553C308.772 81.8553 307.796 81.4702 307.055 80.778L278.128 53.7504Z" fill="#D9D9D9"/>
<path d="M165.128 205.75C163.436 204.169 163.436 201.486 165.128 199.905L194.055 172.877C194.796 172.185 195.772 171.8 196.786 171.8H260.046C261.06 171.8 262.036 172.185 262.777 172.877L291.703 199.905C293.396 201.486 293.396 204.169 291.703 205.75L262.777 232.778C262.036 233.47 261.06 233.855 260.046 233.855L196.786 233.855C195.772 233.855 194.796 233.47 194.055 232.778L165.128 205.75Z" fill="#D9D9D9"/>
<path d="M165.128 307.75C163.436 306.169 163.436 303.486 165.128 301.905L194.055 274.877C194.796 274.185 195.772 273.8 196.786 273.8H260.046C261.06 273.8 262.036 274.185 262.777 274.877L291.703 301.905C293.396 303.486 293.396 306.169 291.703 307.75L262.777 334.778C262.036 335.47 261.06 335.855 260.046 335.855H196.786C195.772 335.855 194.796 335.47 194.055 334.778L165.128 307.75Z" fill="#D9D9D9"/>
<path d="M165.128 103.75C163.436 102.169 163.436 99.4858 165.128 97.9047L194.055 70.8771C194.796 70.1849 195.772 69.7998 196.786 69.7998L260.046 69.7998C261.06 69.7998 262.036 70.1849 262.777 70.8771L291.703 97.9047C293.396 99.4858 293.396 102.169 291.703 103.75L262.777 130.778C262.036 131.47 261.06 131.855 260.046 131.855L196.786 131.855C195.772 131.855 194.796 131.47 194.055 130.778L165.128 103.75Z" fill="#D9D9D9"/>
<path d="M392.128 103.75C390.436 102.169 390.436 99.486 392.128 97.9049L421.055 70.8773C421.796 70.1851 422.772 69.8 423.786 69.8H455.416V82V100.828V119.5V131.855H423.786C422.772 131.855 421.796 131.47 421.055 130.778L392.128 103.75Z" fill="#D9D9D9"/>
<path d="M392.128 307.95C390.436 306.369 390.436 303.686 392.128 302.105L421.055 275.077C421.796 274.385 422.772 274 423.786 274H455.416V286.2V305.028V323.7V336.055H423.786C422.772 336.055 421.796 335.67 421.055 334.978L392.128 307.95Z" fill="#D9D9D9"/>
<path d="M392.128 204.95C390.436 203.369 390.436 200.686 392.128 199.105L421.055 172.077C421.796 171.385 422.772 171 423.786 171H455.416V183.2V202.028V220.7V233.055H423.786C422.772 233.055 421.796 232.67 421.055 231.978L392.128 204.95Z" fill="#D9D9D9"/>
<path d="M63.2876 103.75C64.9798 102.169 64.9798 99.486 63.2876 97.9049L34.3608 70.8773C33.62 70.1851 32.6439 69.8 31.63 69.8H-1.52588e-05V82L-1.52588e-05 100.828V119.5V131.855H31.63C32.6439 131.855 33.62 131.47 34.3608 130.778L63.2876 103.75Z" fill="#D9D9D9"/>
<path d="M63.2876 307.95C64.9798 306.369 64.9798 303.686 63.2876 302.105L34.3608 275.077C33.62 274.385 32.6439 274 31.63 274H-1.52588e-05V286.2L-1.52588e-05 305.028V323.7V336.055H31.63C32.6439 336.055 33.62 335.67 34.3608 334.978L63.2876 307.95Z" fill="#D9D9D9"/>
<path d="M63.2876 204.95C64.9798 203.369 64.9798 200.686 63.2876 199.105L34.3608 172.077C33.62 171.385 32.6439 171 31.63 171H-1.52588e-05V183.2L-1.52588e-05 202.028V220.7V233.055H31.63C32.6439 233.055 33.62 232.67 34.3608 231.978L63.2876 204.95Z" fill="#D9D9D9"/>
<path d="M278.128 153.75C276.436 152.169 276.436 149.486 278.128 147.905L307.055 120.877C307.796 120.185 308.772 119.8 309.786 119.8L373.046 119.8C374.06 119.8 375.036 120.185 375.777 120.877L404.703 147.905C406.396 149.486 406.396 152.169 404.703 153.75L375.777 180.778C375.036 181.47 374.06 181.855 373.046 181.855L309.786 181.855C308.772 181.855 307.796 181.47 307.055 180.778L278.128 153.75Z" fill="#D9D9D9"/>
<path d="M278.128 255.75C276.436 254.169 276.436 251.486 278.128 249.905L307.055 222.877C307.796 222.185 308.772 221.8 309.786 221.8H373.046C374.06 221.8 375.036 222.185 375.777 222.877L404.703 249.905C406.396 251.486 406.396 254.169 404.703 255.75L375.777 282.778C375.036 283.47 374.06 283.855 373.046 283.855H309.786C308.772 283.855 307.796 283.47 307.055 282.778L278.128 255.75Z" fill="#D9D9D9"/>
<path d="M214 158H262.211C262.718 158 263.206 158.193 263.577 158.539L303.923 196.251C304.294 196.597 304.782 196.79 305.289 196.79H354.5" stroke="#D9D9D9" stroke-width="4"/>
<path d="M50.1281 53.7504C48.4359 52.1693 48.4359 49.486 50.1281 47.9049L79.0549 20.8773C79.7958 20.1851 80.7719 19.8001 81.7858 19.8001L145.046 19.8001C146.06 19.8001 147.036 20.1851 147.777 20.8773L176.703 47.9049C178.396 49.486 178.396 52.1693 176.703 53.7504L147.777 80.778C147.036 81.4702 146.06 81.8553 145.046 81.8553L81.7858 81.8553C80.7719 81.8553 79.7958 81.4702 79.0549 80.778L50.1281 53.7504Z" fill="#D9D9D9"/>
<path d="M278.128 357.75C276.436 356.169 276.436 353.486 278.128 351.905L307.055 324.877C307.796 324.185 308.772 323.8 309.786 323.8H373.046C374.06 323.8 375.036 324.185 375.777 324.877L404.703 351.905C406.396 353.486 406.396 356.169 404.703 357.75L375.777 384.778C375.036 385.47 374.06 385.855 373.046 385.855H309.786C308.772 385.855 307.796 385.47 307.055 384.778L278.128 357.75Z" fill="#D9D9D9"/>
<path d="M102 107H150.211C150.718 107 151.206 107.193 151.577 107.539L191.923 145.251C192.294 145.597 192.782 145.79 193.289 145.79H242.5" stroke="#D9D9D9" stroke-width="4"/>
<path d="M102 196.79H150.211C150.718 196.79 151.206 196.597 151.577 196.251L191.923 158.539C192.294 158.193 192.782 158 193.289 158H242.5" stroke="#D9D9D9" stroke-width="4"/>
<path d="M126.5 209H77.2892C76.7821 209 76.2939 209.193 75.9235 209.539L35 247.79" stroke="#D9D9D9" stroke-width="4"/>
<path d="M102 209H150.211C150.718 209 151.206 209.193 151.577 209.539L191.923 247.251C192.294 247.597 192.782 247.79 193.289 247.79H242.5" stroke="#D9D9D9" stroke-width="4"/>
<path d="M214 158H262.211C262.718 158 263.206 158.193 263.577 158.539L303.923 196.251C304.294 196.597 304.782 196.79 305.289 196.79H354.5" stroke="#D9D9D9" stroke-width="4"/>
<path d="M126.5 209H77.2892C76.7821 209 76.2939 209.193 75.9235 209.539L35 247.79" stroke="#D9D9D9" stroke-width="4"/>
<path d="M102 209H150.211C150.718 209 151.206 209.193 151.577 209.539L191.923 247.251C192.294 247.597 192.782 247.79 193.289 247.79H242.5" stroke="#D9D9D9" stroke-width="4"/>
<path d="M126.5 298.79H77.2892C76.7821 298.79 76.2939 298.597 75.9235 298.251L35 260" stroke="#D9D9D9" stroke-width="4"/>
<path d="M102 298.79H150.211C150.718 298.79 151.206 298.597 151.577 298.251L191.923 260.539C192.294 260.193 192.782 260 193.289 260H242.5" stroke="#D9D9D9" stroke-width="4"/>
<path d="M126.5 311H77.2892C76.7821 311 76.2939 311.193 75.9235 311.539L35 349.79" stroke="#D9D9D9" stroke-width="4"/>
<path d="M102 311H150.211C150.718 311 151.206 311.193 151.577 311.539L191.923 349.251C192.294 349.597 192.782 349.79 193.289 349.79H242.5" stroke="#D9D9D9" stroke-width="4"/>
<path d="M214 349.79H262.211C262.718 349.79 263.206 349.597 263.577 349.251L303.923 311.539C304.294 311.193 304.782 311 305.289 311H354.5" stroke="#D9D9D9" stroke-width="4"/>
<path d="M214 260H262.211C262.718 260 263.206 260.193 263.577 260.539L303.923 298.251C304.294 298.597 304.782 298.79 305.289 298.79H354.5" stroke="#D9D9D9" stroke-width="4"/>
<path d="M102 298.79H150.211C150.718 298.79 151.206 298.597 151.577 298.251L191.923 260.539C192.294 260.193 192.782 260 193.289 260H242.5" stroke="#D9D9D9" stroke-width="4"/>
<path d="M102 311H150.211C150.718 311 151.206 311.193 151.577 311.539L191.923 349.251C192.294 349.597 192.782 349.79 193.289 349.79H242.5" stroke="#D9D9D9" stroke-width="4"/>
<path d="M214 349.79H262.211C262.718 349.79 263.206 349.597 263.577 349.251L303.923 311.539C304.294 311.193 304.782 311 305.289 311H354.5" stroke="#D9D9D9" stroke-width="4"/>
<path d="M214 260H262.211C262.718 260 263.206 260.193 263.577 260.539L303.923 298.251C304.294 298.597 304.782 298.79 305.289 298.79H354.5" stroke="#D9D9D9" stroke-width="4"/>
<path d="M102 298.79H150.211C150.718 298.79 151.206 298.597 151.577 298.251L191.923 260.539C192.294 260.193 192.782 260 193.289 260H242.5" stroke="#D9D9D9" stroke-width="4"/>
<path d="M214 362H262.211C262.718 362 263.206 362.193 263.577 362.539L303.923 400.251C304.294 400.597 304.782 400.79 305.289 400.79H354.5" stroke="#D9D9D9" stroke-width="4"/>
<path d="M102 400.79H150.211C150.718 400.79 151.206 400.597 151.577 400.251L191.923 362.539C192.294 362.193 192.782 362 193.289 362H242.5" stroke="#D9D9D9" stroke-width="4"/>
<path d="M214 44.7896H262.211C262.718 44.7896 263.206 44.5969 263.577 44.2507L303.923 6.53888C304.294 6.19261 304.782 6 305.289 6H354.5" stroke="#D9D9D9" stroke-width="4"/>
<path d="M126.5 6H77.2892C76.7821 6 76.2939 6.19261 75.9235 6.53888L35 44.7896" stroke="#D9D9D9" stroke-width="4"/>
<path d="M102 6L150.211 6C150.718 6 151.206 6.19262 151.577 6.53888L191.923 44.2507C192.294 44.5969 192.782 44.7896 193.289 44.7896L242.5 44.7896" stroke="#D9D9D9" stroke-width="4"/>
<path d="M214 57H262.211C262.718 57 263.206 57.1926 263.577 57.5389L303.923 95.2507C304.294 95.5969 304.782 95.7896 305.289 95.7896H354.5" stroke="#D9D9D9" stroke-width="4"/>
<path d="M330 95.7896H378.211C378.718 95.7896 379.206 95.5969 379.577 95.2507L419.923 57.5389C420.294 57.1926 420.782 57 421.289 57L455.5 57" stroke="#D9D9D9" stroke-width="4"/>
<path d="M126.5 95.7896H77.2892C76.7821 95.7896 76.2939 95.5969 75.9235 95.2507L35 57" stroke="#D9D9D9" stroke-width="4"/>
<path d="M102 95.7896H150.211C150.718 95.7896 151.206 95.5969 151.577 95.2507L191.923 57.5389C192.294 57.1926 192.782 57 193.289 57L242.5 57" stroke="#D9D9D9" stroke-width="4"/>
<path d="M102 311H150.211C150.718 311 151.206 311.193 151.577 311.539L191.923 349.251C192.294 349.597 192.782 349.79 193.289 349.79H242.5" stroke="#D9D9D9" stroke-width="4"/>
<path d="M455.556 407H391C391.007 405.943 391.43 404.888 392.269 404.104L421.195 377.077C421.936 376.385 422.912 376 423.926 376H455.556V407Z" fill="#D9D9D9"/>
<path d="M0 407H64.5557C64.5485 405.943 64.126 404.888 63.2871 404.104L34.3604 377.077C33.6196 376.385 32.6436 376 31.6299 376H0V407Z" fill="#D9D9D9"/>
<path d="M455.556 0H391C391.007 1.05702 391.43 2.11172 392.269 2.89551L421.195 29.9229C421.936 30.6148 422.912 30.9999 423.926 31H455.556V0Z" fill="#D9D9D9"/>
<path d="M0 0H64.5557C64.5485 1.05695 64.1267 2.11177 63.2881 2.89551L34.3604 29.9229C33.6196 30.6147 32.6434 30.9999 31.6299 31H0V0Z" fill="#D9D9D9"/>
<mask id="mask0_17_117" style="mask-type:alpha" maskUnits="userSpaceOnUse" x="163" y="-32" width="130" height="63">
<path d="M165.128 2.75019C163.436 1.16909 163.436 -1.51421 165.128 -3.09531L194.055 -30.1229C194.796 -30.8151 195.772 -31.2002 196.786 -31.2002L260.046 -31.2002C261.06 -31.2002 262.036 -30.8151 262.777 -30.1229L291.703 -3.09531C293.396 -1.51421 293.396 1.16909 291.703 2.75019L262.777 29.7778C262.036 30.47 261.06 30.855 260.046 30.855L196.786 30.855C195.772 30.855 194.796 30.47 194.055 29.7778L165.128 2.75019Z" fill="#D9D9D9"/>
</mask>
<g mask="url(#mask0_17_117)">
<rect x="158" y="-0.000244141" width="137" height="35" fill="#D9D9D9"/>
</g>
<mask id="mask1_17_117" style="mask-type:alpha" maskUnits="userSpaceOnUse" x="162" y="375" width="130" height="63">
<path d="M164.128 403.905C162.436 405.486 162.436 408.169 164.128 409.751L193.055 436.778C193.796 437.47 194.772 437.855 195.786 437.855H259.046C260.06 437.855 261.036 437.47 261.777 436.778L290.703 409.751C292.396 408.169 292.396 405.486 290.703 403.905L261.777 376.877C261.036 376.185 260.06 375.8 259.046 375.8H195.786C194.772 375.8 193.796 376.185 193.055 376.877L164.128 403.905Z" fill="#D9D9D9"/>
</mask>
<g mask="url(#mask1_17_117)">
<rect width="137" height="35" transform="matrix(1 0 0 -1 157 407)" fill="#D9D9D9"/>
</g>
</g>
<defs>
<clipPath id="clip0_17_117">
<rect width="455" height="407" fill="white"/>
</clipPath>
</defs>
</svg>
